<?xml version="1.0" encoding="UTF-8" standalone="no"?>
<!DOCTYPE svg PUBLIC "-//W3C//DTD SVG 20010904//EN"
"http://www.w3.org/TR/2001/REC-SVG-20010904/DTD/svg10.dtd">
<!-- Created with Inkscape (http://www.inkscape.org/) -->
<svg
   id="svg1"
   sodipodi:version="0.32"
   inkscape:version="0.40"
   width="16.000000mm"
   height="110.00000pt"
   sodipodi:docbase="/home/collin/Sources/projects/musitech/workspace/musitech/test/de/uos/fmt/musitech/mpeg/testcases"
   sodipodi:docname="neumClef.svg"
   xmlns="http://www.w3.org/2000/svg"
   xmlns:cc="http://web.resource.org/cc/"
   xmlns:inkscape="http://www.inkscape.org/namespaces/inkscape"
   xmlns:sodipodi="http://sodipodi.sourceforge.net/DTD/sodipodi-0.dtd"
   xmlns:rdf="http://www.w3.org/1999/02/22-rdf-syntax-ns#"
   xmlns:dc="http://purl.org/dc/elements/1.1/"
   xmlns:xlink="http://www.w3.org/1999/xlink">
  <defs
     id="defs3" />
  <sodipodi:namedview
     id="base"
     pagecolor="#ffffff"
     bordercolor="#666666"
     borderopacity="1.0"
     inkscape:pageopacity="0.0"
     inkscape:pageshadow="2"
     inkscape:zoom="3.7248887"
     inkscape:cx="18.037857"
     inkscape:cy="36.154702"
     inkscape:window-width="640"
     inkscape:window-height="538"
     showgrid="false"
     inkscape:grid-bbox="false"
     inkscape:window-x="326"
     inkscape:window-y="136"
     inkscape:current-layer="svg1" />
  <metadata
     id="metadata4">
    <rdf:RDF
       id="RDF5">
      <cc:Work
         rdf:about=""
         id="Work6">
        <dc:format
           id="format7">image/svg+xml</dc:format>
        <dc:type
           id="type9"
           rdf:resource="http://purl.org/dc/dcmitype/StillImage" />
      </cc:Work>
    </rdf:RDF>
  </metadata>
  <path
     style="fill:#000000;fill-opacity:1.0000000;fill-rule:evenodd;stroke:#000000;stroke-width:1.3669996pt;stroke-linecap:butt;stroke-linejoin:miter;stroke-opacity:1.0000000;"
     d="M 28.568290,0.75632423 C 13.215388,0.75632423 0.87413306,7.1565674 0.87413306,15.064508 L 0.87413306,52.635335 C 0.87413306,53.744933 1.1836742,54.821479 1.6444853,55.857046 C 3.2010261,48.719794 14.783153,43.207095 29.069018,43.207095 C 42.231766,43.207095 53.132919,47.880244 55.992822,54.198813 C 56.102790,53.680051 56.300962,53.169662 56.300962,52.635335 L 56.300962,15.064508 C 56.300962,7.1565683 43.921190,0.75632423 28.568290,0.75632423 z "
     id="rect917" />
  <path
     style="fill:none;fill-opacity:0.75000000;fill-rule:evenodd;stroke:#000000;stroke-width:4.9299824pt;stroke-linecap:butt;stroke-linejoin:miter;stroke-opacity:1.0000000"
     d="M 3.0891345,44.326584 L 3.0891345,125.43597"
     id="path2180" />
  <path
     style="fill:#000000;fill-opacity:1.0000000;fill-rule:evenodd;stroke:#000000;stroke-width:1.3669996pt;stroke-linecap:butt;stroke-linejoin:miter;stroke-opacity:1.0000000"
     d="M 29.034150,138.11986 C 44.386812,138.03349 56.691870,131.56393 56.647387,123.65612 L 56.436048,86.085883 C 56.429807,84.976300 56.114215,83.901519 55.647586,82.868557 C 54.131218,90.014450 42.580283,95.592213 28.294644,95.672572 C 15.132104,95.746613 4.2048369,91.134857 1.3094369,84.832474 C 1.2023879,85.351855 1.0070899,85.863341 1.0100969,86.397663 L 1.2214379,123.96789 C 1.2659149,131.87571 13.681493,138.20622 29.034150,138.11986 z "
     id="path1347" />
</svg>
